<svg width="499" height="142" viewBox="0 0 499 142" fill="none" xmlns="http://www.w3.org/2000/svg">
<rect width="499" height="142" fill="#1E1E1E"/>
<rect width="499" height="142" fill="white"/>
<path d="M57.28 83.16C57.9733 83.16 58.5067 83.48 58.88 84.12C59.3067 84.76 59.52 85.64 59.52 86.76C59.52 88.8933 59.0133 90.5467 58 91.72C55.8133 94.3867 53.4133 96.68 50.8 98.6C48.1867 100.467 45.6 101.4 43.04 101.4C38.9867 101.4 35.8933 99.0267 33.76 94.28C31.52 97.1067 29.5467 99 27.84 99.96C26.1867 100.92 24.24 101.4 22 101.4C18.7467 101.4 16.0533 100.2 13.92 97.8C11.84 95.3467 10.8 92.1733 10.8 88.28C10.8 84.0133 11.7067 80.0667 13.52 76.44C15.3333 72.76 17.8133 69.7733 20.96 67.48C24.16 65.1333 27.7333 63.7467 31.68 63.32C32.6933 52.9733 34.6133 44.1467 37.44 36.84C40.32 29.48 44.08 25.8 48.72 25.8C51.0133 25.8 52.9067 26.84 54.4 28.92C55.9467 31 56.72 34.1467 56.72 38.36C56.72 44.3333 55.2533 51.32 52.32 59.32C49.3867 67.32 45.4667 75.5333 40.56 83.96C40.7733 87.0533 41.2267 89.2667 41.92 90.6C42.6667 91.9333 43.6 92.6 44.72 92.6C46.16 92.6 47.6267 91.96 49.12 90.68C50.6133 89.4 52.6133 87.2667 55.12 84.28C55.76 83.5333 56.48 83.16 57.28 83.16ZM47.84 33.64C46.8267 33.64 45.8133 35.4533 44.8 39.08C43.7867 42.6533 42.9067 47.3467 42.16 53.16C41.4667 58.9733 40.96 65.0533 40.64 71.4C46.6133 58.3867 49.6 47.9333 49.6 40.04C49.6 38.0133 49.4133 36.44 49.04 35.32C48.72 34.2 48.32 33.64 47.84 33.64ZM24.8 93.32C25.8133 93.32 26.8267 92.92 27.84 92.12C28.8533 91.2667 30.1333 89.72 31.68 87.48C31.1467 84.6 30.88 81.3733 30.88 77.8C30.88 76.52 30.9333 74.44 31.04 71.56C28.1067 72.4667 25.6533 74.44 23.68 77.48C21.76 80.4667 20.8 83.8 20.8 87.48C20.8 91.3733 22.1333 93.32 24.8 93.32ZM88.6919 83.16C89.3852 83.16 89.9185 83.48 90.2919 84.12C90.7185 84.76 90.9319 85.64 90.9319 86.76C90.9319 88.8933 90.4252 90.5467 89.4119 91.72C87.4385 94.12 84.6385 96.3333 81.0119 98.36C77.4385 100.387 73.5985 101.4 69.4919 101.4C63.8919 101.4 59.5452 99.88 56.4519 96.84C53.3585 93.8 51.8119 89.64 51.8119 84.36C51.8119 80.68 52.5852 77.2667 54.1319 74.12C55.6785 70.92 57.8119 68.3867 60.5319 66.52C63.3052 64.6533 66.4252 63.72 69.8919 63.72C72.9852 63.72 75.4652 64.6533 77.3319 66.52C79.1985 68.3333 80.1319 70.8133 80.1319 73.96C80.1319 77.64 78.7985 80.8133 76.1319 83.48C73.5185 86.0933 69.0652 88.1733 62.7719 89.72C64.1052 92.1733 66.6385 93.4 70.3719 93.4C72.7719 93.4 75.4919 92.5733 78.5319 90.92C81.6252 89.2133 84.2919 87 86.5319 84.28C87.1719 83.5333 87.8919 83.16 88.6919 83.16ZM68.5319 71.56C66.5585 71.56 64.8785 72.7067 63.4919 75C62.1585 77.2933 61.4919 80.0667 61.4919 83.32V83.48C64.6385 82.7333 67.1185 81.6133 68.9319 80.12C70.7452 78.6267 71.6519 76.8933 71.6519 74.92C71.6519 73.9067 71.3585 73.1067 70.7719 72.52C70.2385 71.88 69.4919 71.56 68.5319 71.56ZM124.988 83.32C125.681 83.32 126.214 83.6667 126.588 84.36C127.014 85 127.227 85.8267 127.227 86.84C127.227 88.0667 127.041 89.0267 126.668 89.72C126.294 90.4133 125.708 91.0267 124.908 91.56C120.321 94.6533 116.961 96.9467 114.828 98.44L109.708 101.88C107.681 112.92 105.014 121.587 101.708 127.88C98.4542 134.227 94.2942 137.4 89.2275 137.4C86.5075 137.4 84.2942 136.547 82.5875 134.84C80.8808 133.187 80.0275 131 80.0275 128.28C80.0275 124.493 81.5208 120.413 84.5075 116.04C87.4942 111.72 93.0942 106.387 101.307 100.04L101.788 96.92C100.881 98.36 99.6808 99.48 98.1875 100.28C96.7475 101.027 95.3075 101.4 93.8675 101.4C90.5608 101.4 87.9208 100.2 85.9475 97.8C83.9742 95.4 82.9875 92.2533 82.9875 88.36C82.9875 84.0933 83.9742 80.0667 85.9475 76.28C87.9208 72.44 90.5342 69.3733 93.7875 67.08C97.0942 64.7333 100.588 63.56 104.268 63.56C105.441 63.56 106.214 63.8 106.588 64.28C107.014 64.7067 107.361 65.5067 107.628 66.68C108.641 66.4667 109.814 66.36 111.148 66.36C112.481 66.36 113.414 66.5733 113.948 67C114.534 67.3733 114.828 68.1467 114.828 69.32C114.828 69.96 114.801 70.4667 114.748 70.84C114.534 72.4933 113.868 76.68 112.748 83.4C112.534 84.68 112.294 86.0933 112.028 87.64C111.814 89.1333 111.574 90.7333 111.308 92.44C115.414 89.24 119.361 86.4133 123.148 83.96C123.841 83.5333 124.454 83.32 124.988 83.32ZM96.7475 93.32C97.9742 93.32 99.1475 92.5733 100.268 91.08C101.388 89.5867 102.188 87.4533 102.668 84.68L105.228 71C103.041 71.0533 101.014 71.9067 99.1475 73.56C97.2808 75.16 95.7875 77.2933 94.6675 79.96C93.5475 82.6267 92.9875 85.4533 92.9875 88.44C92.9875 90.0933 93.3075 91.32 93.9475 92.12C94.6408 92.92 95.5742 93.32 96.7475 93.32ZM90.1075 129.64C91.4408 129.64 92.9342 128.04 94.5875 124.84C96.2942 121.64 97.9208 116.547 99.4675 109.56C95.3608 113.08 92.4008 116.253 90.5875 119.08C88.7742 121.907 87.8675 124.387 87.8675 126.52C87.8675 127.427 88.0275 128.173 88.3475 128.76C88.7208 129.347 89.3075 129.64 90.1075 129.64ZM127.129 101.4C125.103 101.4 123.663 100.333 122.809 98.2C122.009 96.0667 121.609 92.6533 121.609 87.96C121.609 81.0267 122.596 74.44 124.569 68.2C125.049 66.6533 125.823 65.5333 126.889 64.84C128.009 64.0933 129.556 63.72 131.529 63.72C132.596 63.72 133.343 63.8533 133.769 64.12C134.196 64.3867 134.409 64.8933 134.409 65.64C134.409 66.4933 134.009 68.4133 133.209 71.4C132.676 73.5333 132.249 75.4 131.929 77C131.609 78.6 131.343 80.5733 131.129 82.92C132.889 78.3333 134.863 74.6 137.049 71.72C139.236 68.84 141.369 66.7867 143.449 65.56C145.583 64.3333 147.529 63.72 149.289 63.72C152.756 63.72 154.489 65.4533 154.489 68.92C154.489 69.6133 154.249 71.2933 153.769 73.96C153.343 76.0933 153.129 77.4267 153.129 77.96C153.129 79.8267 153.796 80.76 155.129 80.76C156.623 80.76 158.543 79.5867 160.889 77.24C161.583 76.5467 162.303 76.2 163.049 76.2C163.743 76.2 164.276 76.52 164.649 77.16C165.076 77.7467 165.289 78.5467 165.289 79.56C165.289 81.5333 164.756 83.08 163.689 84.2C162.196 85.7467 160.436 87.08 158.409 88.2C156.436 89.2667 154.329 89.8 152.089 89.8C149.263 89.8 147.103 89.08 145.609 87.64C144.169 86.2 143.449 84.2533 143.449 81.8C143.449 81 143.529 80.2 143.689 79.4C143.796 78.3333 143.849 77.6133 143.849 77.24C143.849 76.3867 143.556 75.96 142.969 75.96C142.169 75.96 141.103 76.8667 139.769 78.68C138.489 80.44 137.209 82.7867 135.929 85.72C134.649 88.6533 133.609 91.7467 132.809 95C132.223 97.5067 131.529 99.2133 130.729 100.12C129.983 100.973 128.783 101.4 127.129 101.4ZM193.536 83.16C194.229 83.16 194.762 83.48 195.136 84.12C195.562 84.76 195.776 85.64 195.776 86.76C195.776 88.8933 195.269 90.5467 194.256 91.72C192.282 94.12 189.482 96.3333 185.856 98.36C182.282 100.387 178.442 101.4 174.336 101.4C168.736 101.4 164.389 99.88 161.296 96.84C158.202 93.8 156.656 89.64 156.656 84.36C156.656 80.68 157.429 77.2667 158.976 74.12C160.522 70.92 162.656 68.3867 165.376 66.52C168.149 64.6533 171.269 63.72 174.736 63.72C177.829 63.72 180.309 64.6533 182.176 66.52C184.042 68.3333 184.976 70.8133 184.976 73.96C184.976 77.64 183.642 80.8133 180.976 83.48C178.362 86.0933 173.909 88.1733 167.616 89.72C168.949 92.1733 171.482 93.4 175.216 93.4C177.616 93.4 180.336 92.5733 183.376 90.92C186.469 89.2133 189.136 87 191.376 84.28C192.016 83.5333 192.736 83.16 193.536 83.16ZM173.376 71.56C171.402 71.56 169.722 72.7067 168.336 75C167.002 77.2933 166.336 80.0667 166.336 83.32V83.48C169.482 82.7333 171.962 81.6133 173.776 80.12C175.589 78.6267 176.496 76.8933 176.496 74.92C176.496 73.9067 176.202 73.1067 175.616 72.52C175.082 71.88 174.336 71.56 173.376 71.56ZM217.902 85.56C218.595 85.56 219.129 85.88 219.502 86.52C219.929 87.16 220.142 88.04 220.142 89.16C220.142 91.08 219.689 92.7333 218.782 94.12C217.289 96.4133 215.315 98.2 212.862 99.48C210.462 100.76 207.582 101.4 204.222 101.4C199.102 101.4 195.129 99.88 192.302 96.84C189.475 93.7467 188.062 89.5867 188.062 84.36C188.062 80.68 188.835 77.2667 190.382 74.12C191.929 70.92 194.062 68.3867 196.782 66.52C199.555 64.6533 202.675 63.72 206.142 63.72C209.235 63.72 211.715 64.6533 213.582 66.52C215.449 68.3333 216.382 70.8133 216.382 73.96C216.382 77.64 215.049 80.8133 212.382 83.48C209.769 86.0933 205.289 88.1733 198.942 89.72C200.222 92.1733 202.382 93.4 205.422 93.4C207.609 93.4 209.395 92.8933 210.782 91.88C212.222 90.8667 213.875 89.16 215.742 86.76C216.382 85.96 217.102 85.56 217.902 85.56ZM204.782 71.56C202.809 71.56 201.129 72.7067 199.742 75C198.409 77.2933 197.742 80.0667 197.742 83.32V83.48C200.889 82.7333 203.369 81.6133 205.182 80.12C206.995 78.6267 207.902 76.8933 207.902 74.92C207.902 73.9067 207.609 73.1067 207.022 72.52C206.489 71.88 205.742 71.56 204.782 71.56Z" fill="#0085FF"/>
<path d="M242.953 101.4C239.859 101.4 236.366 101.133 232.473 100.6C230.339 100.333 228.873 99.7733 228.073 98.92C227.273 98.0667 226.926 96.68 227.033 94.76C227.406 89.48 228.286 82.9733 229.673 75.24C231.059 67.4533 232.739 59.96 234.713 52.76C235.086 51.4267 235.833 50.4933 236.953 49.96C238.073 49.4267 239.539 49.16 241.353 49.16C244.606 49.16 246.233 50.0667 246.233 51.88C246.233 52.6267 246.073 53.48 245.753 54.44C244.366 58.7067 242.979 64.44 241.593 71.64C240.206 78.7867 239.219 85.6133 238.633 92.12C240.233 92.28 242.046 92.36 244.073 92.36C253.406 92.36 260.366 89.5333 264.953 83.88C269.593 78.2267 271.913 70.68 271.913 61.24C271.913 54.8933 270.099 49.9867 266.473 46.52C262.846 43.0533 257.726 41.32 251.113 41.32C246.846 41.32 242.606 41.9867 238.393 43.32C234.233 44.6533 230.473 46.4133 227.113 48.6C226.419 49.08 225.673 49.32 224.873 49.32C223.966 49.32 223.246 48.9467 222.713 48.2C222.179 47.4 221.913 46.44 221.913 45.32C221.913 44.04 222.126 43 222.553 42.2C222.979 41.3467 223.699 40.5733 224.713 39.88C228.393 37.3733 232.713 35.48 237.673 34.2C242.633 32.8667 247.406 32.2 251.993 32.2C258.499 32.2 264.126 33.3467 268.873 35.64C273.619 37.88 277.273 41.1867 279.833 45.56C282.393 49.9333 283.673 55.2133 283.673 61.4C283.673 69.4533 282.073 76.4933 278.873 82.52C275.673 88.4933 271.006 93.1333 264.873 96.44C258.739 99.7467 251.433 101.4 242.953 101.4ZM329.828 76.44C330.521 76.44 331.054 76.7867 331.428 77.48C331.801 78.1733 331.988 79.0533 331.988 80.12C331.988 82.68 331.214 84.2 329.668 84.68C326.468 85.8 322.948 86.44 319.108 86.6C318.094 91.08 316.094 94.68 313.108 97.4C310.121 100.067 306.734 101.4 302.948 101.4C299.748 101.4 297.001 100.627 294.708 99.08C292.468 97.5333 290.761 95.48 289.588 92.92C288.414 90.36 287.827 87.5867 287.827 84.6C287.827 80.5467 288.601 76.9467 290.148 73.8C291.694 70.6 293.828 68.12 296.548 66.36C299.268 64.5467 302.281 63.64 305.588 63.64C309.641 63.64 312.894 65.0533 315.348 67.88C317.854 70.6533 319.321 74.0933 319.748 78.2C322.254 78.04 325.241 77.5067 328.708 76.6C329.134 76.4933 329.508 76.44 329.828 76.44ZM303.588 92.92C305.294 92.92 306.761 92.2267 307.988 90.84C309.268 89.4533 310.121 87.4533 310.548 84.84C308.894 83.72 307.614 82.2533 306.708 80.44C305.854 78.6267 305.428 76.7067 305.428 74.68C305.428 73.8267 305.508 72.9733 305.668 72.12H305.268C303.134 72.12 301.348 73.16 299.908 75.24C298.521 77.2667 297.828 80.1467 297.828 83.88C297.828 86.8133 298.388 89.0533 299.508 90.6C300.681 92.1467 302.041 92.92 303.588 92.92ZM355.441 83.16C356.135 83.16 356.668 83.48 357.041 84.12C357.468 84.76 357.681 85.64 357.681 86.76C357.681 88.8933 357.175 90.5467 356.161 91.72C353.868 94.5467 351.361 96.8667 348.641 98.68C345.975 100.493 342.935 101.4 339.521 101.4C334.828 101.4 331.335 99.2667 329.041 95C326.801 90.7333 325.681 85.2133 325.681 78.44C325.681 71.9333 326.508 64.52 328.161 56.2C329.868 47.88 332.348 40.7333 335.601 34.76C338.908 28.7867 342.828 25.8 347.361 25.8C349.921 25.8 351.921 27 353.361 29.4C354.855 31.7467 355.601 35.1333 355.601 39.56C355.601 45.9067 353.841 53.2667 350.321 61.64C346.801 70.0133 342.028 78.3067 336.001 86.52C336.375 88.7067 336.988 90.28 337.841 91.24C338.695 92.1467 339.815 92.6 341.201 92.6C343.388 92.6 345.308 91.9867 346.961 90.76C348.615 89.48 350.721 87.32 353.281 84.28C353.921 83.5333 354.641 83.16 355.441 83.16ZM345.601 33.72C344.375 33.72 342.988 35.9333 341.441 40.36C339.895 44.7867 338.535 50.28 337.361 56.84C336.188 63.4 335.548 69.6933 335.441 75.72C339.228 69.48 342.241 63.24 344.481 57C346.721 50.7067 347.841 44.9733 347.841 39.8C347.841 35.7467 347.095 33.72 345.601 33.72ZM381.535 83.16C382.228 83.16 382.762 83.48 383.135 84.12C383.562 84.76 383.775 85.64 383.775 86.76C383.775 88.8933 383.268 90.5467 382.255 91.72C379.962 94.5467 377.455 96.8667 374.735 98.68C372.068 100.493 369.028 101.4 365.615 101.4C360.922 101.4 357.428 99.2667 355.135 95C352.895 90.7333 351.775 85.2133 351.775 78.44C351.775 71.9333 352.602 64.52 354.255 56.2C355.962 47.88 358.442 40.7333 361.695 34.76C365.002 28.7867 368.922 25.8 373.455 25.8C376.015 25.8 378.015 27 379.455 29.4C380.948 31.7467 381.695 35.1333 381.695 39.56C381.695 45.9067 379.935 53.2667 376.415 61.64C372.895 70.0133 368.122 78.3067 362.095 86.52C362.468 88.7067 363.082 90.28 363.935 91.24C364.788 92.1467 365.908 92.6 367.295 92.6C369.482 92.6 371.402 91.9867 373.055 90.76C374.708 89.48 376.815 87.32 379.375 84.28C380.015 83.5333 380.735 83.16 381.535 83.16ZM371.695 33.72C370.468 33.72 369.082 35.9333 367.535 40.36C365.988 44.7867 364.628 50.28 363.455 56.84C362.282 63.4 361.642 69.6933 361.535 75.72C365.322 69.48 368.335 63.24 370.575 57C372.815 50.7067 373.935 44.9733 373.935 39.8C373.935 35.7467 373.188 33.72 371.695 33.72ZM386.368 101.4C383.061 101.4 380.421 100.2 378.448 97.8C376.474 95.4 375.488 92.2533 375.488 88.36C375.488 84.0933 376.474 80.0667 378.448 76.28C380.421 72.44 383.034 69.3733 386.288 67.08C389.594 64.7333 393.088 63.56 396.768 63.56C397.941 63.56 398.714 63.8 399.088 64.28C399.514 64.7067 399.861 65.5067 400.128 66.68C401.248 66.4667 402.421 66.36 403.648 66.36C406.261 66.36 407.568 67.2933 407.568 69.16C407.568 70.28 407.168 72.9467 406.368 77.16C405.141 83.2933 404.528 87.56 404.528 89.96C404.528 90.76 404.714 91.4 405.088 91.88C405.514 92.36 406.048 92.6 406.688 92.6C407.701 92.6 408.928 91.96 410.368 90.68C411.808 89.3467 413.754 87.2133 416.208 84.28C416.848 83.5333 417.568 83.16 418.368 83.16C419.061 83.16 419.594 83.48 419.968 84.12C420.394 84.76 420.608 85.64 420.608 86.76C420.608 88.8933 420.101 90.5467 419.088 91.72C416.901 94.44 414.581 96.7333 412.128 98.6C409.674 100.467 407.301 101.4 405.008 101.4C403.248 101.4 401.621 100.813 400.128 99.64C398.688 98.4133 397.594 96.76 396.848 94.68C394.074 99.16 390.581 101.4 386.368 101.4ZM389.248 93.32C390.421 93.32 391.541 92.6267 392.608 91.24C393.674 89.8533 394.448 88.0133 394.928 85.72L397.888 71C395.648 71.0533 393.568 71.9067 391.648 73.56C389.781 75.16 388.288 77.2933 387.168 79.96C386.048 82.6267 385.488 85.4533 385.488 88.44C385.488 90.0933 385.808 91.32 386.448 92.12C387.141 92.92 388.074 93.32 389.248 93.32ZM446.426 74.68C447.599 74.68 448.586 75.1067 449.386 75.96C450.239 76.76 450.666 77.7733 450.666 79C450.666 79.6933 450.506 80.44 450.186 81.24C449.332 83.2133 448.132 84.8667 446.586 86.2C445.039 87.5333 443.332 88.2 441.466 88.2C439.972 88.2 438.692 87.6667 437.626 86.6C436.612 85.5333 436.106 84.0933 436.106 82.28C436.106 81.2667 436.159 80.1733 436.266 79C436.372 78.1467 436.426 77.56 436.426 77.24C436.426 76.8133 436.319 76.4933 436.106 76.28C435.946 76.0667 435.732 75.96 435.466 75.96C434.719 75.96 433.706 76.8667 432.426 78.68C431.146 80.44 429.866 82.7867 428.586 85.72C427.306 88.6533 426.266 91.7467 425.466 95C424.879 97.56 424.212 99.2667 423.466 100.12C422.719 100.973 421.492 101.4 419.786 101.4C417.759 101.4 416.319 100.333 415.466 98.2C414.666 96.0667 414.266 92.6533 414.266 87.96C414.266 81.0267 415.252 74.44 417.226 68.2C417.706 66.6533 418.479 65.5333 419.546 64.84C420.666 64.0933 422.212 63.72 424.186 63.72C425.252 63.72 425.999 63.8533 426.426 64.12C426.852 64.3867 427.066 64.8933 427.066 65.64C427.066 66.4933 426.666 68.4133 425.866 71.4C425.332 73.5333 424.906 75.4 424.586 77C424.266 78.6 423.999 80.5733 423.786 82.92C425.546 78.3333 427.519 74.6 429.706 71.72C431.892 68.84 434.026 66.7867 436.106 65.56C438.186 64.3333 440.079 63.72 441.786 63.72C443.332 63.72 444.506 64.1733 445.306 65.08C446.159 65.9333 446.586 67.2133 446.586 68.92C446.586 69.9333 446.292 71.8533 445.706 74.68H446.426ZM466.564 103.16C463.79 103.16 461.657 102.52 460.164 101.24C458.724 99.96 458.004 98.52 458.004 96.92C458.004 95.5333 458.51 94.3333 459.524 93.32C460.537 92.3067 462.03 91.8 464.004 91.8C464.697 91.8 465.497 91.88 466.404 92.04C467.364 92.1467 468.084 92.2267 468.564 92.28C468.51 90.8933 468.19 89.5867 467.604 88.36C467.07 87.1333 466.377 85.96 465.524 84.84C464.67 83.6667 463.87 82.6533 463.124 81.8C461.47 84.9467 459.817 87.56 458.164 89.64C456.564 91.72 454.804 93.6933 452.884 95.56C451.924 96.52 450.91 97 449.844 97C448.99 97 448.297 96.7067 447.764 96.12C447.23 95.48 446.964 94.7067 446.964 93.8C446.964 92.7333 447.337 91.7467 448.084 90.84L449.124 89.56C452.057 85.9333 454.27 82.9467 455.764 80.6C456.724 79.0533 457.684 77.2133 458.644 75.08C459.657 72.9467 460.964 70.04 462.564 66.36C463.577 64.0133 465.684 62.84 468.884 62.84C470.377 62.84 471.417 62.9733 472.004 63.24C472.59 63.5067 472.884 63.9333 472.884 64.52C472.884 64.84 472.777 65.3467 472.564 66.04C472.35 66.7333 472.057 67.4267 471.684 68.12C470.724 70.04 470.244 71.6667 470.244 73C470.244 73.8 470.51 74.68 471.044 75.64C471.63 76.6 472.51 77.8 473.684 79.24C475.39 81.48 476.67 83.4 477.524 85C478.43 86.5467 478.884 88.2533 478.884 90.12C478.884 92.36 478.35 94.4933 477.284 96.52C476.27 98.4933 474.83 100.093 472.964 101.32C471.097 102.547 468.964 103.16 466.564 103.16Z" fill="#2ECC71"/>
</svg>
