<svg width="728" height="323" viewBox="0 0 728 323" fill="none" xmlns="http://www.w3.org/2000/svg">
<rect width="728" height="323" fill="#1E1E1E"/>
<rect width="728" height="323" fill="white"/>
<path d="M103.384 274.876L93.2493 256.827L113.681 78.142L142.194 62.1321L212.109 186.646L238.267 171.958L249.871 192.623L223.713 207.311L247.36 249.426L223.818 262.645L200.17 220.53L103.384 274.876ZM133.651 99.6142L119.247 238.789L189.613 199.278L133.651 99.6142Z" fill="#0085FF"/>
<path d="M494.146 199.163L499.831 179.259L641.125 67.9859L672.568 76.9668L633.349 214.276L662.195 222.515L655.686 245.304L626.84 237.064L613.574 283.507L587.613 276.091L600.878 229.649L494.146 199.163ZM639.933 97.285L530.944 185.026L608.541 207.19L639.933 97.285Z" fill="#2ECC71"/>
<path d="M301.301 124.546C301.034 90.1467 306.426 63.3041 317.477 44.0177C328.526 24.5314 348.05 14.6796 376.049 14.4624C403.848 14.2467 423.423 23.7951 434.773 43.1076C446.122 62.2201 451.93 88.9758 452.196 123.375C452.468 158.374 447.079 185.616 436.03 205.103C424.981 224.589 405.557 234.44 377.758 234.656C349.759 234.873 330.084 225.325 318.734 206.013C307.383 186.7 301.573 159.545 301.301 124.546ZM425.197 123.584C425.062 106.185 423.748 91.4946 421.255 79.5136C418.961 67.331 414.185 57.5678 406.928 50.2239C399.87 42.8784 389.642 39.2577 376.242 39.3616C362.643 39.4672 352.272 43.2477 345.129 50.7034C338.187 58.1575 333.563 67.9936 331.258 80.2119C329.151 92.2286 328.165 106.937 328.3 124.336C328.44 142.336 329.657 157.427 331.952 169.609C334.446 181.79 339.222 191.553 346.279 198.899C353.537 206.243 363.965 209.862 377.565 209.757C390.964 209.653 401.135 205.873 408.077 198.419C415.22 190.964 419.844 181.128 421.949 168.911C424.254 156.693 425.337 141.584 425.197 123.584Z" fill="url(#paint0_linear_0_1)"/>
<defs>
<linearGradient id="paint0_linear_0_1" x1="473.168" y1="102.712" x2="348.053" y2="-51.9927" gradientUnits="userSpaceOnUse">
<stop stop-color="#2ECC71"/>
<stop offset="0.963542" stop-color="#0085FF" stop-opacity="0.85"/>
<stop offset="1" stop-color="#119FCA" stop-opacity="0"/>
</linearGradient>
</defs>
</svg>
