<svg width="133" height="115" viewBox="0 0 133 115" fill="none" xmlns="http://www.w3.org/2000/svg">
<rect width="133" height="115" fill="#1E1E1E"/>
<rect width="133" height="115" fill="white"/>
<path d="M41.2 78.7C41.9333 84.1667 43 89.5667 44.4 94.9C44.6667 95.7667 44.8 96.6667 44.8 97.6C44.8 100.6 42.9667 102.1 39.3 102.1C37.2333 102.1 35.6333 101.533 34.5 100.4C33.4333 99.2667 32.4333 97.1333 31.5 94L31.4 93.6C28.8667 96.7333 26.5667 98.8333 24.5 99.9C22.5 100.967 20.1667 101.5 17.5 101.5C13.4333 101.5 10.0667 100 7.4 97C4.8 93.9333 3.5 89.9667 3.5 85.1C3.5 79.7667 4.63333 74.8333 6.9 70.3C9.16667 65.7667 12.2667 62.0667 16.2 59.2C20.1333 56.2667 24.5333 54.5 29.4 53.9C30.6667 41.3 33.0667 30.3333 36.6 21C40.2 11.6667 44.9667 6.99999 50.9 6.99999C53.7667 6.99999 56.1333 8.3 58 10.9C59.9333 13.5 60.9 17.4333 60.9 22.7C60.9 30.0333 59.1 38.6 55.5 48.4C51.9 58.2 47.1333 68.3 41.2 78.7ZM49.8 16.8C47.8667 16.8 46.0333 21.7333 44.3 31.6C42.6333 41.4667 41.5 52.2 40.9 63.8C48.3 47.8 52 34.8 52 24.8C52 22.2667 51.7667 20.3 51.3 18.9C50.9 17.5 50.4 16.8 49.8 16.8ZM21 91.4C22.3333 91.4 23.6 90.9 24.8 89.9C26.0667 88.9 27.6667 86.9667 29.6 84.1C28.9333 79.2333 28.6 74.2 28.6 69C28.6 66.9333 28.6333 65.3333 28.7 64.2C25.0333 65.2667 22 67.7 19.6 71.5C17.2 75.3 16 79.5 16 84.1C16 88.9667 17.6667 91.4 21 91.4Z" fill="#0085FF"/>
<path d="M80.1164 101.5C76.2497 101.5 71.8831 101.167 67.0164 100.5C64.3497 100.167 62.5164 99.4667 61.5164 98.4C60.5164 97.3333 60.0831 95.6 60.2164 93.2C60.6831 86.6 61.7831 78.4667 63.5164 68.8C65.2497 59.0667 67.3497 49.7 69.8164 40.7C70.2831 39.0333 71.2164 37.8667 72.6164 37.2C74.0164 36.5333 75.8497 36.2 78.1164 36.2C82.1831 36.2 84.2164 37.3333 84.2164 39.6C84.2164 40.5333 84.0164 41.6 83.6164 42.8C81.8831 48.1333 80.1497 55.3 78.4164 64.3C76.6831 73.2333 75.4497 81.7667 74.7164 89.9C76.7164 90.1 78.9831 90.2 81.5164 90.2C93.1831 90.2 101.883 86.6667 107.616 79.6C113.416 72.5333 116.316 63.1 116.316 51.3C116.316 43.3667 114.05 37.2333 109.516 32.9C104.983 28.5667 98.5831 26.4 90.3164 26.4C84.9831 26.4 79.6831 27.2333 74.4164 28.9C69.2164 30.5667 64.5164 32.7667 60.3164 35.5C59.4497 36.1 58.5164 36.4 57.5164 36.4C56.3831 36.4 55.4831 35.9333 54.8164 35C54.1497 34 53.8164 32.8 53.8164 31.4C53.8164 29.8 54.0831 28.5 54.6164 27.5C55.1497 26.4333 56.0497 25.4667 57.3164 24.6C61.9164 21.4667 67.3164 19.1 73.5164 17.5C79.7164 15.8333 85.6831 15 91.4164 15C99.5497 15 106.583 16.4333 112.516 19.3C118.45 22.1 123.016 26.2333 126.216 31.7C129.416 37.1667 131.016 43.7667 131.016 51.5C131.016 61.5667 129.016 70.3667 125.016 77.9C121.016 85.3667 115.183 91.1667 107.516 95.3C99.8497 99.4333 90.7164 101.5 80.1164 101.5Z" fill="#2ECC71"/>
</svg>
